<?xml version="1.0" encoding="utf-8"?>
<svg width="38" height="40" xmlns="http://www.w3.org/2000/svg">
 <style type="text/css">.st0{fill:#009ED3;}
	.st1{fill:#FFFFFF;}
	.st2{fill:none;}</style>

 <g>
  <title>background</title>
  <rect fill="none" id="canvas_background" height="42" width="40" y="-1" x="-1"/>
 </g>
 <g>
  <title>Layer 1</title>
  <g id="Group_333">
   <circle id="svg_1" r="16" cy="17.46154" cx="21.85009" class="st2"/>
   <g id="svg_2">
    <path id="svg_3" d="m24.06154,16.32679c0,-0.6 -0.4,-1 -1,-1l-6,0l0,-6c0,-0.6 -0.4,-1 -1,-1s-1,0.4 -1,1l0,6l-6,0c-0.6,0 -1,0.4 -1,1s0.4,1 1,1l6,0l0,6c0,0.6 0.4,1 1,1s1,-0.4 1,-1l0,-6l6,0c0.5,0 1,-0.4 1,-1z" class="st1"/>
    <path id="svg_4" d="m37.56154,36.82679l-5.8,-5.8l3.1,-3.1c0.1,-0.1 0.2,-0.2 0.2,-0.4c0.2,-0.5 -0.1,-1.1 -0.6,-1.3l-4.8,-1.6c1.5,-2.4 2.4,-5.3 2.4,-8.4c0,-8.8 -7.2,-16 -16,-16s-16,7.2 -16,16s7.2,16 16,16c2.9,0 5.6,-0.8 7.9,-2.1l1.6,4.9c0,0.1 0.1,0.3 0.2,0.4c0.4,0.4 1,0.4 1.4,0l3.1,-3.1l5.8,5.8c0.4,0.4 1,0.4 1.4,0c0.5,-0.3 0.5,-0.9 0.1,-1.3zm-21.5,-5.5c-8.3,0 -15,-6.7 -15,-15s6.7,-15 15,-15c8.3,0 15,6.7 15,15c0,3 -0.9,5.7 -2.4,8l-5.6,-1.9c-0.2,-0.1 -0.4,-0.1 -0.6,0c-0.5,0.2 -0.8,0.7 -0.6,1.3l1.8,5.5c-2.3,1.3 -4.9,2.1 -7.6,2.1z" class="st1"/>
   </g>
  </g>
 </g>
</svg>




