<svg xmlns="http://www.w3.org/2000/svg" width="40" height="40" viewBox="0 0 40 40">
    <path d="M10.65 2L2 10.65v18.7L10.65 38h18.7L38 29.35v-18.7L29.35 2zm-.828-2h20.356L40 9.822v20.356L30.178 40H9.822L0 30.178V9.822z" data-name="Path 337"/>
    <path d="M9.208 14.46v11.08l5.252 5.252h11.08l5.253-5.253V14.461L25.54 9.208H14.46l-5.252 5.253zm5.045-6.252h11.493a.5.5 0 0 1 .354.147l5.545 5.545a.5.5 0 0 1 .147.354v11.492a.5.5 0 0 1-.147.354L26.1 31.645a.5.5 0 0 1-.354.147H14.253a.5.5 0 0 1-.354-.147L8.354 26.1a.5.5 0 0 1-.146-.354V14.254a.5.5 0 0 1 .146-.354L13.9 8.355a.5.5 0 0 1 .354-.147zm5.3 12.019l-9.668-19a.5.5 0 0 1 .892-.454l9.668 19a.5.5 0 1 1-.891.454zm0-.454l9.67-19a.5.5 0 0 1 .891.454l-9.669 19a.5.5 0 0 1-.891-.454zm.22-.218l19-9.67a.5.5 0 1 1 .453.891l-19 9.67a.5.5 0 0 1-.453-.891zm.453 0l19 9.669a.5.5 0 1 1-.453.89l-19-9.668a.5.5 0 1 1 .453-.891zm.22.218l9.668 19a.5.5 0 0 1-.891.454l-9.67-19a.5.5 0 0 1 .892-.454zm0 .454l-9.67 19a.5.5 0 1 1-.89-.454l9.668-19a.5.5 0 0 1 .891.454zm-.22.219l-19 9.669a.5.5 0 0 1-.453-.891l19-9.67a.5.5 0 0 1 .453.892zm-.453 0l-19-9.67a.5.5 0 1 1 .454-.89l19 9.669a.5.5 0 1 1-.454.89zM6.465 13.065v13.87l6.6 6.6h13.87l6.6-6.6v-13.87l-6.6-6.6h-13.87l-6.6 6.6zm6.393-7.6h14.284a.5.5 0 0 1 .353.147l6.893 6.888a.5.5 0 0 1 .146.354v14.288a.5.5 0 0 1-.146.354L27.5 34.388a.5.5 0 0 1-.353.147H12.858a.5.5 0 0 1-.354-.147L5.611 27.5a.5.5 0 0 1-.146-.354V12.858a.5.5 0 0 1 .146-.354L12.5 5.612a.5.5 0 0 1 .354-.147z" data-name="Path 338"/>
</svg>
