<svg xmlns="http://www.w3.org/2000/svg" width="38" height="40" viewBox="0 0 38 40">
    <path d="M14 1.9C7.373 1.9 2 7.022 2 13.333v13.334C2 32.978 7.373 38.1 14 38.1h10c6.627 0 12-5.117 12-11.428V13.333C36 7.022 30.627 1.9 24 1.9H14zM14 0h10c7.732 0 14 5.97 14 13.333v13.334C38 34.03 31.732 40 24 40H14C6.268 40 0 34.03 0 26.667V13.333C0 5.97 6.268 0 14 0z" data-name="Path 339"/>
    <path d="M9 1v38h1V1zm19 0v38h1V1z" data-name="Path 340"/>
    <path d="M1 11h36v-1H1zm0 19h36v-1H1zM3 6h6.86V5H3zm26 0h5.86V5H29zM5 35h5.86v-1H5zm23 0h4.86v-1H28z" data-name="Path 341"/>
    <path d="M32 6v6h1V6zm0 22v7h1v-7zM5 4v6h1V4zm-.036 7.533l.395-1.13h.282l.395 1.13-.536 1.533-.536-1.533zM2.52 20l2.98 6.934L8.35 20 5.5 13.066 2.521 20zM5.5 10l3.924 10L5.5 30 1.448 20z" data-name="Path 342"/>
    <path d="M29.528 20l2.972 6.241L36 20l-3.5-6.241zm2.972-9l4.573 9-4.573 9-4.045-9zm-4.668 22.947l.74.35v.403l-.74.35-1.168-.55 1.168-.553zM19.5 30.66l-7.164 3.84 7.164 2.908 7.164-2.908zM29 34.5l-9.5 4.015L10 34.5l9.5-4.946zM27.77 4.947l.78.35V5.7l-.78.35-1.229-.55 1.23-.553zM19 1.747L11.459 5.5 19 9.59l7.541-4.09L19 1.746zM29 5.5l-10 5.2L9 5.5 19 .64zM5 29v5h1v-5z" data-name="Path 343"/>
</svg>
