<svg xmlns="http://www.w3.org/2000/svg" width="30" height="40" viewBox="0 0 30 40">
    <path d="M8.222 2L2 8.511v22.977L8.222 38h13.556L28 31.488V8.511L21.778 2zm-.856-2h15.267L30 7.71v24.58L22.633 40H7.366L0 32.29V7.71z" data-name="Path 344"/>
    <path d="M10.234 6.593l-.157.063-2.213 2.378-2.23 2.4c-.054 8.08-.054 8.236-.054 16.222 1.529 1.646 3.053 3.271 4.561 4.911l9.588-.015q2.281-2.449 4.56-4.891V11.493l-4.555-4.9h-9.5zm-.307-.975h10.01a.48.48 0 0 1 .353.154q2.421 2.607 4.833 5.2a.472.472 0 0 1 .127.327v16.545a.49.49 0 0 1-.13.334l-2.415 2.595-2.415 2.6a.48.48 0 0 1-.352.154H9.928a.48.48 0 0 1-.353-.154q-2.4-2.582-4.821-5.182a.49.49 0 0 1-.14-.342V11.3a.49.49 0 0 1 .13-.334l4.831-5.19a.48.48 0 0 1 .352-.154zm1.111 3.743L7.378 13.3v13.09l3.66 3.934h7.737l3.661-3.934V13.3l-3.66-3.934h-7.738zm-.209-.974h8.155a.48.48 0 0 1 .352.154l3.935 4.228a.49.49 0 0 1 .131.333v13.481a.49.49 0 0 1-.13.333l-3.936 4.229a.48.48 0 0 1-.352.154H10.83a.48.48 0 0 1-.352-.154l-3.935-4.229a.49.49 0 0 1-.13-.333V13.1a.49.49 0 0 1 .13-.334l3.935-4.228a.48.48 0 0 1 .352-.154zm-.446.674L7.347 1.678a.483.483 0 1 1 .892-.373l3.036 7.382a.484.484 0 1 1-.892.374zm8.16-.386l3.277-7.383a.484.484 0 1 1 .881.4l-3.276 7.381a.484.484 0 1 1-.882-.398zm4.069 4.052l5.411-4.51a.485.485 0 0 1 .615.751l-5.411 4.51a.485.485 0 0 1-.615-.751zm.63 13.494l5.59 5.063a.486.486 0 0 1-.646.725L22.6 26.946a.486.486 0 0 1 .646-.725zm-3.814 4.4l3.276 7.7a.483.483 0 1 1-.887.384L18.54 31a.484.484 0 1 1 .888-.381zm-8.15.372l-3.036 7.7a.485.485 0 1 1-.9-.36l3.036-7.7a.484.484 0 1 1 .9.358zM7.223 26.94L1.82 32a.485.485 0 0 1-.657-.714l5.4-5.064a.485.485 0 0 1 .657.714zm-.655-13.48L1.6 8.858a.485.485 0 0 1 .653-.717l4.965 4.6a.485.485 0 0 1-.653.717z" data-name="Path 345"/>
</svg>
