<?xml version="1.0" standalone="no"?>
<!DOCTYPE svg PUBLIC "-//W3C//DTD SVG 20010904//EN"
 "http://www.w3.org/TR/2001/REC-SVG-20010904/DTD/svg10.dtd">
<svg version="1.0" xmlns="http://www.w3.org/2000/svg"
 width="43" height="43" viewBox="0 0 120.000000 114.000000"
 preserveAspectRatio="xMidYMid meet">

<g transform="translate(0.000000,114.000000) scale(0.100000,-0.100000)"
fill="#000000" stroke="none">
<path d="M215 1131 c-54 -13 -106 -43 -129 -75 -133 -177 -108 -432 66 -668
70 -95 220 -234 343 -318 l105 -71 105 71 c123 84 273 223 343 318 174 236
199 491 66 668 -73 98 -306 110 -461 25 l-53 -29 -53 29 c-92 50 -240 72 -332
50z m75 -58 c0 -4 -14 -22 -32 -40 l-32 -33 -23 22 c-31 29 -29 36 10 47 40
11 77 13 77 4z m693 -4 c43 -12 44 -15 15 -46 l-22 -23 -33 32 c-18 17 -33 36
-33 40 0 11 28 10 73 -3z m-511 -19 c58 -22 108 -61 108 -84 0 -10 -31 3 -100
41 -55 30 -100 57 -100 59 0 10 44 2 92 -16z m348 16 c0 -2 -45 -29 -100 -59
-77 -42 -100 -51 -99 -39 0 23 49 60 107 83 43 17 92 25 92 15z m-430 -46 c0
-4 -11 -17 -24 -29 -20 -19 -31 -22 -58 -16 -51 11 -52 15 -18 50 32 33 33 33
66 17 19 -8 34 -19 34 -22z m545 -30 c-3 -4 -21 -11 -41 -15 -30 -5 -41 -2
-60 16 -31 29 -30 32 9 51 31 16 33 15 64 -15 18 -16 30 -33 28 -37z m-754 14
l28 -27 -71 -83 c-39 -46 -73 -82 -76 -80 -7 7 19 119 35 151 16 32 42 65 52
65 2 0 17 -12 32 -26z m891 9 c9 -10 22 -31 31 -48 16 -32 42 -144 35 -151 -3
-2 -37 34 -76 79 l-71 84 27 26 c31 32 34 32 54 10z m-597 -39 l40 -25 -59 6
c-69 7 -73 9 -56 30 17 21 29 19 75 -11z m325 11 c17 -21 13 -23 -56 -30 l-59
-6 40 25 c46 30 58 32 75 11z m-474 -48 c6 -6 -29 -97 -37 -97 -7 0 -29 79
-29 104 0 12 6 13 31 6 18 -5 33 -11 35 -13z m604 -47 c-7 -28 -15 -50 -19
-50 -4 0 -13 17 -20 38 -8 20 -16 42 -18 49 -5 14 60 35 65 21 2 -5 -2 -31 -8
-58z m-681 -35 c23 -84 23 -84 4 -166 l-18 -81 -78 87 -78 87 53 60 c29 33 59
68 67 79 7 10 17 19 21 19 4 0 17 -38 29 -85z m752 66 c8 -11 38 -46 67 -79
l53 -60 -78 -87 -78 -87 -18 81 c-19 82 -19 82 4 166 12 47 25 85 29 85 4 0
14 -9 21 -19z m-401 -6 c41 0 112 4 156 8 l82 8 30 -78 29 -78 -73 -147 -74
-147 -75 -51 -75 -51 -75 51 -75 51 -74 147 -73 147 29 78 30 78 82 -8 c44 -4
115 -8 156 -8z m-380 -336 c0 -3 -19 -16 -42 -29 -39 -22 -42 -22 -54 -5 -16
21 -50 124 -58 175 -5 34 -4 33 74 -50 44 -47 79 -88 80 -91z m914 139 c-9
-50 -43 -153 -58 -173 -11 -16 -15 -16 -42 -2 -62 34 -63 29 21 121 42 47 79
86 81 86 2 0 1 -15 -2 -32z m-738 -206 c-7 -7 -136 74 -132 83 2 6 9 37 16 70
l12 60 53 -105 c29 -58 52 -106 51 -108z m524 151 c7 -32 14 -62 17 -69 3 -8
-77 -59 -130 -82 -4 -2 16 44 45 102 29 58 53 106 55 106 1 0 7 -26 13 -57z
m-686 -145 c3 -13 6 -50 5 -83 l0 -60 -27 32 c-15 17 -35 45 -44 61 l-18 30
33 21 c40 26 43 26 51 -1z m118 -19 l75 -41 17 -74 c10 -42 16 -78 13 -80 -11
-11 -168 30 -176 45 -11 20 -20 191 -11 191 4 0 40 -18 82 -41z m580 -46 c-2
-49 -8 -95 -13 -104 -8 -15 -165 -56 -176 -45 -3 2 3 38 13 80 l17 75 71 39
c39 22 76 40 82 41 7 1 9 -28 6 -86z m84 66 l34 -21 -17 -30 c-10 -16 -30 -44
-45 -61 l-27 -32 0 60 c-1 60 7 105 16 105 3 0 21 -9 39 -21z m-498 -121 c26
-17 49 -33 51 -34 4 -4 -35 -39 -60 -54 -13 -7 -18 2 -31 56 -8 35 -13 64 -11
64 2 0 25 -14 51 -32z m204 -32 c-17 -70 -18 -71 -72 -25 -20 17 -22 22 -10
29 8 5 31 20 50 34 19 14 38 25 41 26 4 0 -1 -29 -9 -64z m-101 -39 c8 -7 28
-22 44 -35 l30 -23 -45 -85 c-25 -46 -47 -84 -50 -84 -3 0 -25 38 -50 84 l-45
85 30 23 c53 42 60 47 65 47 3 0 12 -5 21 -12z m-226 -48 c28 -6 53 -14 57
-18 3 -3 -3 -18 -15 -33 l-22 -27 -55 50 c-32 30 -47 48 -35 45 11 -3 43 -10
70 -17z m445 -29 l-55 -49 -17 22 c-26 36 -22 41 44 58 89 24 89 24 28 -31z
m-309 -93 c32 -63 31 -63 -44 -10 l-47 35 21 30 c25 34 23 35 70 -55z m197 1
c-18 -15 -46 -34 -62 -44 l-28 -17 38 73 38 73 23 -29 23 -29 -32 -27z"/>
</g>
</svg>
