<svg xmlns="http://www.w3.org/2000/svg" width="24" height="40.014" viewBox="0 0 24 40.014">
    <defs>
        <style>
            .cls-1,.cls-2{fill:none;stroke:#000;fill-rule:evenodd}.cls-1{stroke-width:2px}.cls-2{stroke-linecap:round;stroke-linejoin:round}
        </style>
    </defs>
    <g id="pear-diamond" transform="translate(1 1.115)">
        <path id="Path_329" d="M20 1.108C13.391 4.37 9 11.722 9 20s4.391 15.63 11 18.892C26.609 35.63 31 28.278 31 20S26.609 4.37 20 1.108z" class="cls-1" data-name="Path 329" transform="translate(-9 -1.108)"/>
        <path id="Path_330" d="M23.024 8.757l1.2-4.459m3.085 11.074L30.2 13.53m-7.169 17.824l1.192 4.464m-7.249-4.46l-1.2 4.46M12.69 24.743L9.8 26.585m2.886-11.2L9.8 13.53m7.166-4.768L15.776 4.3m1.191 4.463l3.275-6.9 2.782 6.892m-10.337 6.628l10.328-6.632 4.785-.743-.506 7.374m0-.014L31 20.081l-3.74 4.647m0-.013l.458 7.392-4.769-.818m.009 0l-2.72 7.28-3.332-7.369m.008.006l-4.785.672.552-7.366m0 .014L9 19.757l3.768-4.591m0 .013l-.412-7.4 4.764.889m-.147.058l10.322 6.657m-4.249-6.65l4.214 16.012m.061-9.344L22.931 31.3m4.335-6.514l-10.392 6.39m6.046.166l-10.256-6.9m4.183 6.748L12.79 15.086m-.152 9.342l4.54-15.8" class="cls-2" data-name="Path 330" transform="translate(-9 -1.108)"/>
    </g>
</svg>
