<svg xmlns="http://www.w3.org/2000/svg" width="40" height="40" viewBox="0 0 40 40">
    <path d="M2 38h36V2H2zm-2 2V0h40v40z" data-name="Path 331"/>
    <path d="M7.163 4.29L4.29 32.837l28.546 2.872L35.71 7.163zm-.4-1.045l29.544 2.973a.5.5 0 0 1 .447.548l-2.973 29.541a.5.5 0 0 1-.547.447L3.693 33.781a.5.5 0 0 1-.448-.547L6.218 3.693a.5.5 0 0 1 .548-.448zM4.02 7.5L7.5 35.98l28.48-3.48L32.5 4.02zm-.62-.93l29.471-3.6a.5.5 0 0 1 .557.436l3.6 29.471a.5.5 0 0 1-.435.557l-29.471 3.6a.5.5 0 0 1-.552-.434L2.966 7.127A.5.5 0 0 1 3.4 6.57zm3.53-3.278a.5.5 0 0 1 .141.8L3.82 7.416A.5.5 0 0 1 3 7.254L.537 1.188a.5.5 0 0 1 .68-.639l5.715 2.743zM1.95 2.01l1.69 4.161 2.23-2.28-3.92-1.88zm34.758 4.922a.5.5 0 0 1-.8.141L32.584 3.82a.5.5 0 0 1 .162-.82L38.812.536a.5.5 0 0 1 .638.68l-2.742 5.715zM37.99 1.95l-4.16 1.689 2.28 2.231 1.88-3.92zm-4.921 34.758a.5.5 0 0 1-.141-.8l3.253-3.324a.5.5 0 0 1 .82.162l2.463 6.066a.5.5 0 0 1-.68.639l-5.715-2.743zm4.982 1.282l-1.69-4.161-2.23 2.28 3.92 1.88zM3.29 33.068a.5.5 0 0 1 .8-.141l3.325 3.253a.5.5 0 0 1-.162.82l-6.066 2.463a.5.5 0 0 1-.639-.68zM2.01 38.05l4.16-1.69-2.28-2.23-1.88 3.92z" data-name="Path 332"/>
</svg>
