<svg xmlns="http://www.w3.org/2000/svg" width="39" height="40" viewBox="0 0 39 40">
    <path d="M6.1 2L2.053 7.555v25.2L7.455 38h24.61l4.882-5.187V8.3L31.425 2zm26.27-2L39 7.562v26.029L32.968 40H6.608L0 33.587V6.917L5.042 0h27.33zM9.71 6.5h18.506l4.114 4.789v18.247L28.672 33.5H10.71l-4.039-4V10.753zm18.985-1H9.172l-3.527 4.938V29.91l4.635 4.59h18.85l4.225-4.58V10.925L28.694 5.5z" data-name="Path 333"/>
    <path d="M1.357 7.59l.4-.62A19.67 19.67 0 0 0 9.25 9.824a15.306 15.306 0 0 0-3.944-7.758l.05-.041-.275-.306.766-.633C9.957 5.7 13.781 7.932 17.952 9.1A29.07 29.07 0 0 0 31.571 1l.728.673.06.046A17.808 17.808 0 0 0 28.3 10a36.571 36.571 0 0 0 8.78-2.262l.05.122.07-.06.64.752c-4.635 3.654-7.217 7.169-8.624 10.809a32.048 32.048 0 0 0 8.7 13.469l.083.052-.554.813a32.131 32.131 0 0 0-9.55-4.347 16.675 16.675 0 0 0 3.415 7.724q.435.471.876.972l-.072.058c.08.1.16.195.242.292l-.786.61q-.543-.648-1.05-1.325c-4.194-4.546-7.814-6.918-11.855-8.1-4.172 1.192-7.384 3.7-10.77 8.974l-.311-.185-.082.16-.9-.432a22.416 22.416 0 0 0 2.662-8.97 20.289 20.289 0 0 0-7.144 3.757l-.13.149L1.954 33l-.1.076-.394-.476-.247-.2.042-.048-.03-.036.182-.14a30.717 30.717 0 0 0 6.776-12.612A23.353 23.353 0 0 0 1 7.943l.357-.354zm2.1 1.416a23.514 23.514 0 0 1 5.2 8.63q.18-.81.338-1.636a19.147 19.147 0 0 0 .374-5.18 18.5 18.5 0 0 1-5.917-1.814zm16.417.558q.29.058.582.113a26.379 26.379 0 0 0 6.81.415A16.613 16.613 0 0 1 29.3 4.383a28.973 28.973 0 0 1-9.433 5.18zm-9.483 1.351a20.41 20.41 0 0 1-.4 5.262q-.324 1.707-.762 3.39c.247.968.447 1.955.616 2.965a30.6 30.6 0 0 1 .476 5.376 18.134 18.134 0 0 1 6.245.176q1.077.2 2.109.48.863-.231 1.742-.392a18.06 18.06 0 0 1 6.352-.05 21.007 21.007 0 0 1 .3-4.637 22.865 22.865 0 0 1 1.089-4.161 29.593 29.593 0 0 1-.707-2.89 18.875 18.875 0 0 1-.31-5.359 27.428 27.428 0 0 1-6.88-.444q-1.17-.214-2.32-.521c-.59.145-1.183.27-1.778.38a23.665 23.665 0 0 1-5.776.425zm-.1-.98a22.421 22.421 0 0 0 5.688-.4l.073-.014A23.5 23.5 0 0 1 8.8 5.345a13.81 13.81 0 0 1 1.484 4.59zm25-.535a34.04 34.04 0 0 1-7.124 1.589 17.87 17.87 0 0 0 .28 5.268q.15.777.343 1.549a25.63 25.63 0 0 1 6.5-8.406zM9.3 28.11a29.344 29.344 0 0 0-.46-5.422 68.828 68.828 0 0 0-.2-1.125 30.613 30.613 0 0 1-4.456 8.715A17.742 17.742 0 0 1 9.3 28.11zm.98.792a21.5 21.5 0 0 1-1.38 6.484 18.079 18.079 0 0 1 7.99-6.246q-.258-.053-.517-.1a16.905 16.905 0 0 0-6.089-.138zm18.03 5.186a15.516 15.516 0 0 1-1.463-4.962 17.069 17.069 0 0 0-6.375.026 24.414 24.414 0 0 1 7.837 4.936zm-.526-5.767a27.993 27.993 0 0 1 7.072 2.727 31.735 31.735 0 0 1-6.173-10.126 22.9 22.9 0 0 0-.622 2.719 19.654 19.654 0 0 0-.277 4.68z" data-name="Path 334"/>
</svg>
