<svg xmlns="http://www.w3.org/2000/svg" width="40" height="40" viewBox="0 0 40 40">
    <path d="M20 38A18 18 0 1 0 2 20a18.039 18.039 0 0 0 18 18zm0 2a20 20 0 1 1 20-20 20.038 20.038 0 0 1-20 20z" data-name="Path 335"/>
    <path d="M25.975 7.7l2.095-5.04a.5.5 0 0 0-.923-.384L25.05 7.32a.5.5 0 1 0 .924.384zm7.218 7.753l5.049-2.084a.5.5 0 1 0-.382-.924l-5.048 2.083a.5.5 0 1 0 .381.925zm-.377 10.586l5.043 2.1a.5.5 0 0 0 .384-.923l-5.043-2.1a.5.5 0 1 0-.384.923zm-7.752 7.221l2.083 5.049a.5.5 0 1 0 .924-.382l-2.083-5.048a.5.5 0 0 0-.924.381zm-10.587-.377l-2.1 5.043a.5.5 0 0 0 .923.384l2.1-5.043a.5.5 0 0 0-.923-.384zm-7.219-7.752L2.21 27.214a.5.5 0 1 0 .382.924l5.048-2.083a.5.5 0 1 0-.382-.924zm.378-10.587l-5.043-2.1a.5.5 0 0 0-.384.923l5.043 2.1a.5.5 0 0 0 .384-.924zm7.753-7.218l-2.084-5.049a.5.5 0 1 0-.924.382l2.084 5.048a.5.5 0 0 0 .924-.381zm4.837-5.533l4.9 6.033A.5.5 0 1 0 25.9 7.2L20.614.685a.5.5 0 0 0-.776 0l-5.3 6.515a.5.5 0 1 0 .776.63l4.912-6.038zm13.067 5.43l-.82 7.729a.5.5 0 1 0 .994.106l.885-8.341a.5.5 0 0 0-.547-.55l-8.357.84-.142.036-18.054 7.5a.5.5 0 1 0 .384.924L25.62 7.995l7.672-.772zm-.688 17.963a.5.5 0 1 0 .626.78l6.537-5.257a.5.5 0 0 0 0-.776L33.28 14.6a.5.5 0 1 0-.634.772l6.015 4.94-6.056 4.87zM25.444 32.5a.5.5 0 0 0-.11.994l8.336.925a.5.5 0 0 0 .553-.544l-.8-8.361a.5.5 0 1 0-1 .095l.742 7.749-7.721-.858zm-10.235.084a.5.5 0 1 0-.782.622l5.225 6.562a.5.5 0 0 0 .776.008l5.361-6.466a.5.5 0 1 0-.77-.638l-4.968 5.992zm-7.279-7.2a.5.5 0 1 0-.993-.115L5.972 33.6a.5.5 0 0 0 .542.556l8.365-.761a.5.5 0 0 0-.09-1l-7.753.705.894-7.72zM7.9 15.153a.5.5 0 0 0-.62-.786L.69 19.561a.5.5 0 0 0-.011.775l6.44 5.393a.5.5 0 0 0 .642-.767l-5.968-5 6.1-4.812zm7.23-7.245a.5.5 0 1 0 .12-.993l-8.328-1a.5.5 0 0 0-.558.54l.721 8.368a.5.5 0 1 0 1-.086l-.675-7.76 7.716.93zm-.39.03l18.042 7.53a.5.5 0 0 0 .385-.923l-18.046-7.53a.5.5 0 0 0-.385.923zm10.346-.264l7.365 18.11a.5.5 0 1 0 .926-.377L26.008 7.3a.5.5 0 1 0-.926.377zm7.475 7.157L24.89 32.816a.5.5 0 0 0 .92.392l7.666-17.985a.5.5 0 0 0-.92-.392zm.186 10.347l-18.169 7.228a.5.5 0 0 0 .37.93l18.165-7.229a.5.5 0 1 0-.37-.929zM25.53 32.6L7.6 24.8a.5.5 0 1 0-.4.916l17.927 7.8a.5.5 0 0 0 .4-.917zm-10.348.108l-7.09-18.219a.5.5 0 1 0-.933.363l7.091 18.22a.5.5 0 0 0 .932-.364zM7.815 25.44l7.937-17.867a.5.5 0 1 0-.914-.406L6.9 25.033a.5.5 0 1 0 .914.406z" data-name="Path 336"/>
</svg>
